<?xml version="1.0" encoding="UTF-8"?>
<svg xmlns="http://www.w3.org/2000/svg" xmlns:xlink="http://www.w3.org/1999/xlink" width="120px" height="192px" viewBox="0 0 120 192" version="1.1">
<g id="surface1">
<path style=" stroke:none;fill-rule:nonzero;fill:rgb(0%,0%,0%);fill-opacity:1;" d="M 65.46875 184.300781 C 65.144531 188.566406 62.769531 192 59.996094 192 C 57.21875 192 54.851562 188.566406 54.527344 184.300781 C 56.316406 184.523438 58.132812 184.648438 59.964844 184.671875 L 60.03125 184.671875 C 61.867188 184.648438 63.679688 184.523438 65.46875 184.300781 Z M 65.46875 184.300781 "/>
<path style=" stroke:none;fill-rule:nonzero;fill:rgb(0%,0%,0%);fill-opacity:1;" d="M 115.34375 182.886719 C 115.265625 183.292969 114.972656 183.453125 114.808594 183.507812 C 114.636719 183.566406 114.316406 183.625 114 183.359375 L 96.269531 168.347656 C 98.335938 166.195312 100.292969 163.839844 102.117188 161.292969 C 104.28125 158.28125 106.230469 155.058594 107.941406 151.679688 C 117.050781 164.703125 116.558594 176.652344 115.34375 182.886719 Z M 115.34375 182.886719 "/>
<path style=" stroke:none;fill-rule:nonzero;fill:rgb(0%,0%,0%);fill-opacity:1;" d="M 23.730469 168.347656 L 5.996094 183.359375 C 5.683594 183.625 5.355469 183.566406 5.191406 183.511719 C 5.023438 183.453125 4.730469 183.292969 4.652344 182.886719 C 3.4375 176.65625 2.945312 164.703125 12.058594 151.679688 C 13.769531 155.0625 15.71875 158.28125 17.882812 161.292969 C 19.707031 163.839844 21.660156 166.191406 23.730469 168.347656 Z M 23.730469 168.347656 "/>
<path style=" stroke:none;fill-rule:nonzero;fill:rgb(0%,0%,0%);fill-opacity:1;" d="M 108.953125 78.234375 C 105.964844 71.882812 102.183594 66.039062 97.75 61.050781 L 114.941406 46.011719 C 115.195312 45.792969 115.464844 45.796875 115.605469 45.816406 C 115.746094 45.835938 116.007812 45.910156 116.179688 46.1875 C 120.199219 52.578125 124.339844 64.988281 108.953125 78.234375 Z M 108.953125 78.234375 "/>
<path style=" stroke:none;fill-rule:nonzero;fill:rgb(0%,0%,0%);fill-opacity:1;" d="M 22.238281 61.054688 C 17.804688 66.046875 14.027344 71.890625 11.035156 78.242188 C -4.339844 65.003906 -0.199219 52.59375 3.816406 46.203125 C 3.992188 45.925781 4.25 45.847656 4.390625 45.828125 C 4.53125 45.808594 4.804688 45.804688 5.054688 46.023438 Z M 22.238281 61.054688 "/>
<path style=" stroke:none;fill-rule:nonzero;fill:rgb(0%,0%,0%);fill-opacity:1;" d="M 111.761719 113.917969 C 111.992188 129.765625 107.007812 145.980469 98.089844 158.402344 C 89.34375 170.589844 77.503906 177.9375 64.386719 179.433594 C 72.285156 173.644531 79.433594 166.359375 85.003906 158.359375 C 93.050781 146.804688 97.308594 134.542969 97.308594 122.902344 C 97.308594 108.949219 93.980469 96.242188 87.945312 87.117188 C 81.359375 77.164062 72.117188 71.90625 61.199219 71.90625 C 52.304688 71.90625 43.980469 76.328125 37.765625 84.359375 C 31.695312 92.203125 28.351562 102.59375 28.351562 113.617188 C 28.351562 132.296875 40.363281 147.488281 55.132812 147.488281 C 67.210938 147.488281 77.042969 135.109375 77.042969 119.898438 C 77.042969 106.039062 71.507812 97.765625 62.234375 97.765625 C 58.574219 97.765625 55.433594 99.363281 53.386719 102.269531 C 50.601562 106.214844 50.273438 112.03125 52.484375 118.21875 L 57.152344 116.554688 C 55.492188 111.902344 55.59375 107.734375 57.4375 105.125 C 58.542969 103.550781 60.203125 102.71875 62.234375 102.71875 C 71.128906 102.71875 72.085938 114.730469 72.085938 119.898438 C 72.085938 132.378906 64.480469 142.53125 55.132812 142.53125 C 43.097656 142.53125 33.308594 129.558594 33.308594 113.617188 C 33.308594 93.351562 45.824219 76.863281 61.199219 76.863281 C 70.371094 76.863281 78.1875 81.355469 83.8125 89.847656 C 89.316406 98.171875 92.351562 109.910156 92.351562 122.902344 C 92.351562 146.535156 73.398438 168.609375 55.496094 179.421875 C 42.421875 177.894531 30.625 170.550781 21.910156 158.40625 C 12.992188 145.980469 8.003906 129.765625 8.234375 113.917969 L 8.234375 113.832031 C 7.886719 94.832031 15.351562 75.132812 27.71875 62.4375 C 36.789062 53.125 47.949219 48.148438 60 48.042969 C 72.050781 48.148438 83.207031 53.128906 92.277344 62.441406 C 104.644531 75.132812 112.109375 94.828125 111.761719 113.832031 Z M 111.761719 113.917969 "/>
<path style=" stroke:none;fill-rule:nonzero;fill:rgb(0%,0%,0%);fill-opacity:1;" d="M 80.714844 25.230469 C 80.714844 31.679688 78.699219 39.351562 75.375 45.714844 C 70.472656 44.019531 65.328125 43.132812 60.019531 43.085938 L 59.980469 43.085938 C 54.667969 43.128906 49.523438 44.019531 44.621094 45.714844 C 41.300781 39.351562 39.28125 31.675781 39.28125 25.230469 C 39.28125 11.316406 48.574219 0 60 0 C 71.421875 0 80.714844 11.316406 80.714844 25.230469 Z M 80.714844 25.230469 "/>
</g>
</svg>
